<svg width="128" height="128" viewBox="0 0 128 128" fill="none" xmlns="http://www.w3.org/2000/svg">
<rect width="128" height="128" fill="#7FBEF9"/>
<path fill-rule="evenodd" clip-rule="evenodd" d="M63.4248 99C66.5062 99 69.0042 96.502 69.0042 93.4206C69.0042 90.3392 66.5062 87.8412 63.4248 87.8412C60.3434 87.8412 57.8454 90.3392 57.8454 93.4206C57.8454 96.502 60.3434 99 63.4248 99ZM63.4248 96.5203C65.1367 96.5203 66.5244 95.1325 66.5244 93.4206C66.5244 91.7087 65.1367 90.321 63.4248 90.321C61.7129 90.321 60.3251 91.7087 60.3251 93.4206C60.3251 95.1325 61.7129 96.5203 63.4248 96.5203Z" fill="black"/>
<path fill-rule="evenodd" clip-rule="evenodd" d="M24.3691 99C27.4505 99 29.9484 96.502 29.9484 93.4206C29.9484 90.3392 27.4505 87.8412 24.3691 87.8412C21.2876 87.8412 18.7897 90.3392 18.7897 93.4206C18.7897 96.502 21.2876 99 24.3691 99ZM24.369 96.5203C26.0809 96.5203 27.4687 95.1325 27.4687 93.4206C27.4687 91.7087 26.0809 90.321 24.369 90.321C22.6571 90.321 21.2694 91.7087 21.2694 93.4206C21.2694 95.1325 22.6571 96.5203 24.369 96.5203Z" fill="black"/>
<rect x="27.389" y="50.7148" width="2.78969" height="35.1102" transform="rotate(9 27.389 50.7148)" fill="black"/>
<rect x="23.6667" y="50" width="6.73236" height="2.78969" transform="rotate(9 23.6667 50)" fill="black"/>
<rect x="31" y="89" width="29" height="3" fill="black"/>
<rect x="23.3624" y="75.6663" width="3.8285" height="19.0095" transform="rotate(-34 23.3624 75.6663)" fill="black"/>
<path fill-rule="evenodd" clip-rule="evenodd" d="M16 92.0258C16.6641 88.0676 20.1065 85.0515 24.2534 85.0515C28.4002 85.0515 31.8427 88.0676 32.5067 92.0258H28.6901C28.0976 90.1394 26.3353 88.7711 24.2534 88.7711C22.1716 88.7711 20.4093 90.1394 19.8168 92.0258H16Z" fill="#878787"/>
<path fill-rule="evenodd" clip-rule="evenodd" d="M55.0557 92.0258C55.7198 88.0676 59.1622 85.0515 63.3091 85.0515C67.456 85.0515 70.8984 88.0676 71.5625 92.0258H67.7458C67.1533 90.1394 65.391 88.7711 63.3091 88.7711C61.2273 88.7711 59.465 90.1394 58.8725 92.0258H55.0557Z" fill="#878787"/>
<rect x="25.4693" y="66" width="2" height="3" transform="rotate(9 25.4693 66)" fill="#C7A35E"/>
<path fill-rule="evenodd" clip-rule="evenodd" d="M22.2862 49.1071L22.2233 49.0853L22.2165 49.1285C21.8774 49.2801 21.508 50.1158 21.3423 51.1615C21.1767 52.2073 21.2699 53.1162 21.5455 53.3652L21.5386 53.4084L21.6051 53.4071C21.6269 53.4184 21.6496 53.426 21.6733 53.4297C21.7228 53.4376 21.7738 53.428 21.8254 53.4028L26.3544 53.3148C26.365 53.3197 26.376 53.3231 26.3874 53.3251C26.4157 53.3301 26.4449 53.3256 26.4744 53.3125L26.5231 53.3115L26.5282 53.2797C26.7173 53.1333 26.9119 52.6632 27.0043 52.0855C27.0974 51.5034 27.0583 50.9894 26.9225 50.7901L26.9339 50.7177L22.4944 49.1792C22.453 49.1393 22.4075 49.1145 22.358 49.1066C22.3343 49.1029 22.3104 49.1031 22.2862 49.1071Z" fill="black"/>
<path d="M75 56.8152C75 55.2709 75.6236 53.792 76.7293 52.714L78.7655 50.7286C84.4371 45.1988 93.7596 46.2878 98.0039 52.9759L99.9231 56L101.674 59.2126C104.528 64.4521 111.844 64.9888 115.433 60.2222L118.484 56.169C120.244 53.8327 123.752 53.836 125.507 56.1756V56.1756C126.905 58.0406 126.603 60.6736 124.819 62.1733L114.194 71.1013C110.446 74.2503 105.008 74.3536 101.144 71.3493V71.3493C100.335 70.7199 99.6227 69.974 99.0318 69.136L93.7021 61.5775C91.6385 58.651 87.4467 58.2644 84.8828 60.7643L84.7267 60.9165C81.0979 64.4546 75 61.8834 75 56.8152V56.8152Z" fill="#D9D9D9"/>
<path d="M74 79.8152C74 78.2709 74.6236 76.792 75.7293 75.714L77.7655 73.7286C83.4371 68.1988 92.7596 69.2878 97.0039 75.9759L98.9231 79L100.674 82.2126C103.528 87.4521 110.844 87.9888 114.433 83.2222L117.484 79.169C119.244 76.8327 122.752 76.836 124.507 79.1756V79.1756C125.905 81.0406 125.603 83.6736 123.819 85.1733L113.194 94.1013C109.446 97.2503 104.008 97.3536 100.144 94.3493V94.3493C99.3345 93.7199 98.6227 92.974 98.0318 92.136L92.7021 84.5775C90.6385 81.651 86.4467 81.2644 83.8828 83.7643L83.7267 83.9165C80.0979 87.4546 74 84.8834 74 79.8152V79.8152Z" fill="#D9D9D9"/>
</svg>
